<?xml version="1.0" ?><svg height="64" id="svg5" version="1.1" viewBox="0 0 64 64" width="64" xml:space="preserve" xmlns="http://www.w3.org/2000/svg" xmlns:svg="http://www.w3.org/2000/svg"><defs id="defs2"/><g id="layer1" transform="translate(-384,-384)"><path d="m 416.00109,405.99941 c -1.52568,0 -2.78037,0.93 -3.63086,2.07422 -0.85049,1.14422 -1.36914,2.55099 -1.36914,3.92578 0,0.68739 0.14449,1.31168 0.49414,1.81445 0.34965,0.50278 0.87571,0.81193 1.38281,0.96875 1.0142,0.31365 2.05004,0.2168 3.12305,0.2168 1.07301,0 2.10885,0.0969 3.12305,-0.2168 0.5071,-0.15682 1.03316,-0.46597 1.38281,-0.96875 0.34965,-0.50277 0.49414,-1.12706 0.49414,-1.81445 0,-1.37479 -0.51865,-2.78156 -1.36914,-3.92578 -0.85049,-1.14422 -2.10518,-2.07422 -3.63086,-2.07422 z m 0,2 c 0.68346,0 1.42816,0.46409 2.02539,1.26758 0.59723,0.80349 0.97461,1.89807 0.97461,2.73242 0,0.41717 -0.0796,0.5945 -0.13477,0.67383 -0.0552,0.0793 -0.11527,0.13218 -0.33203,0.19922 -0.43351,0.13406 -1.39707,0.12695 -2.5332,0.12695 -1.13613,0 -2.09969,0.007 -2.5332,-0.12695 -0.21676,-0.067 -0.27687,-0.11989 -0.33203,-0.19922 -0.0552,-0.0793 -0.13477,-0.25666 -0.13477,-0.67383 0,-0.83435 0.37738,-1.92893 0.97461,-2.73242 0.59723,-0.80349 1.34193,-1.26758 2.02539,-1.26758 z" id="path48080" style="color:#000000;fill:#444b54;fill-opacity:1;fill-rule:evenodd;stroke-linecap:round;stroke-linejoin:round;stroke-miterlimit:4.1"/><path d="m 410.00109,400.99941 c -1.64501,0 -3,1.35499 -3,3 0,1.64501 1.35499,3 3,3 1.64501,0 3,-1.35499 3,-3 0,-1.64501 -1.35499,-3 -3,-3 z m 0,2 c 0.56413,0 1,0.43587 1,1 0,0.56413 -0.43587,1 -1,1 -0.56413,0 -1,-0.43587 -1,-1 0,-0.56413 0.43587,-1 1,-1 z" id="path48086" style="color:#000000;fill:#444b54;fill-opacity:1;fill-rule:evenodd;stroke-linecap:round;stroke-linejoin:round;stroke-miterlimit:4.1"/><path d="m 416.00109,396.99941 c -1.64501,0 -3,1.35499 -3,3 0,1.64501 1.35499,3 3,3 1.64501,0 3,-1.35499 3,-3 0,-1.64501 -1.35499,-3 -3,-3 z m 0,2 c 0.56413,0 1,0.43587 1,1 0,0.56413 -0.43587,1 -1,1 -0.56413,0 -1,-0.43587 -1,-1 0,-0.56413 0.43587,-1 1,-1 z" id="path48092" style="color:#000000;fill:#444b54;fill-opacity:1;fill-rule:evenodd;stroke-linecap:round;stroke-linejoin:round;stroke-miterlimit:4.1"/><path d="m 422.00109,400.99941 c -1.64501,0 -3,1.35499 -3,3 0,1.64501 1.35499,3 3,3 1.64501,0 3,-1.35499 3,-3 0,-1.64501 -1.35499,-3 -3,-3 z m 0,2 c 0.56413,0 1,0.43587 1,1 0,0.56413 -0.43587,1 -1,1 -0.56413,0 -1,-0.43587 -1,-1 0,-0.56413 0.43587,-1 1,-1 z" id="path48098" style="color:#000000;fill:#444b54;fill-opacity:1;fill-rule:evenodd;stroke-linecap:round;stroke-linejoin:round;stroke-miterlimit:4.1"/><path d="m 409.0089,429.42715 c -0.81076,0.23895 -1.57389,0.51535 -2.26562,0.83398 -1.2188,0.56142 -2.24081,1.23996 -2.9961,2.0625 -0.45776,0.49852 -0.81622,1.06468 -1.02929,1.67578 h -0.7168 c -0.55228,0 -1,0.44772 -1,1 0,0.55229 0.44772,1 1,1 h 0.58203 c 0.16783,0.79653 0.58782,1.5326 1.16406,2.16016 0.75529,0.82254 1.7773,1.50109 2.9961,2.0625 2.20795,1.01704 5.07902,1.6476 8.25781,1.75781 v 1.01953 c 0,0.55229 0.44772,1 1,1 0.55229,0 1,-0.44771 1,-1 v -1.01953 c 3.17879,-0.11021 6.04986,-0.74077 8.25781,-1.75781 1.21881,-0.56141 2.24081,-1.23996 2.9961,-2.0625 0.57625,-0.62756 0.99623,-1.36363 1.16406,-2.16016 h 0.58203 c 0.55229,0 1,-0.44771 1,-1 0,-0.55228 -0.44771,-1 -1,-1 h -0.71289 c -0.45763,-1.3252 -1.62115,-2.42857 -3.10352,-3.26562 -0.48105,-0.27214 -1.09164,-0.10243 -1.36328,0.3789 -0.27213,0.48106 -0.10243,1.09165 0.37891,1.36329 0.86775,0.48999 1.46628,1.01002 1.83789,1.52343 h -0.0371 c -0.55228,0 -1,0.44772 -1,1 0,0.55229 0.44772,1 1,1 h 0.33398 c -0.1159,0.2603 -0.2965,0.5276 -0.55273,0.80664 -0.50978,0.55518 -1.31808,1.11906 -2.36133,1.59961 -1.87486,0.86362 -4.49417,1.45781 -7.41992,1.57032 -0.0127,-0.54311 -0.45674,-0.97672 -1,-0.97657 -0.5425,9.1e-4 -0.98533,0.43421 -0.99805,0.97657 -2.92653,-0.11232 -5.54659,-0.70651 -7.42187,-1.57032 -1.04325,-0.48055 -1.85155,-1.04443 -2.36133,-1.59961 -0.25623,-0.27904 -0.43683,-0.54634 -0.55273,-0.80664 h 0.33398 c 0.55229,0 1,-0.44771 1,-1 0,-0.55228 -0.44771,-1 -1,-1 h -0.0449 c 0.0777,-0.10593 0.16331,-0.21296 0.26367,-0.32226 0.50978,-0.55517 1.31809,-1.11906 2.36133,-1.59961 0.81175,-0.37392 1.76541,-0.6946 2.82031,-0.95117 -0.45083,-0.54131 -0.91212,-1.10393 -1.39258,-1.69922 z" id="path38960" style="color:#000000;fill:#444b54;fill-opacity:1;fill-rule:evenodd;stroke-linecap:round;stroke-linejoin:round;stroke-miterlimit:4.1"/><path d="m 416.00109,387.99941 c -10.48155,0 -19,8.51845 -19,19 0,5.57411 4.65955,12.76781 9.19922,18.82813 4.53966,6.06031 9.07422,10.85937 9.07422,10.85937 a 1.00011,1.00011 0 0 0 1.45312,0 c 0,0 11.67251,-12.28085 16.375,-22.57617 a 1.00001,1.00001 0 0 0 -0.49414,-1.32617 1.00001,1.00001 0 0 0 -1.32617,0.49414 c -4.17925,9.14978 -14.12793,19.94674 -15.29687,21.20703 -0.96089,-1.03657 -4.31605,-4.69437 -8.1836,-9.85742 -4.46032,-5.9544 -8.80078,-13.26191 -8.80078,-17.62891 0,-9.40066 7.59934,-17 17,-17 9.40067,0 17,7.59934 17,17 a 1.00001,1.00001 0 0 0 1,1 1.00001,1.00001 0 0 0 1,-1 c 0,-10.48155 -8.51844,-19 -19,-19 z" id="path38964" style="color:#000000;fill:#444b54;fill-opacity:1;fill-rule:evenodd;stroke-linecap:round;stroke-linejoin:round;stroke-miterlimit:4.1"/><path d="m 433.51396,409.57889 a 1,1 0 0 0 -1,1 1,1 0 0 0 1,1 1,1 0 0 0 1,-1 1,1 0 0 0 -1,-1 z" id="path38966" style="color:#000000;fill:#444b54;fill-opacity:1;fill-rule:evenodd;stroke-linecap:round;stroke-linejoin:round;stroke-miterlimit:4.1"/><path d="m 416.00109,420.99941 c -2.31767,0 -4.51168,-0.56438 -6.43945,-1.56445 a 1.000005,1.000005 0 0 1 -0.42578,-1.34961 1.000005,1.000005 0 0 1 1.34765,-0.42578 c 1.65158,0.85678 3.52441,1.33984 5.51758,1.33984 6.63922,0 12,-5.36078 12,-12 0,-1.48995 -0.27131,-2.913 -0.76563,-4.22656 a 1.000005,1.000005 0 0 1 0.58399,-1.28711 1.000005,1.000005 0 0 1 1.28906,0.58398 c 0.57735,1.53423 0.89258,3.19717 0.89258,4.92969 0,7.7201 -6.27989,14 -14,14 z m -11.63672,-6.71875 a 1.000005,1.000005 0 0 1 -0.59961,-0.47461 c -1.12311,-2.01503 -1.76367,-4.34008 -1.76367,-6.80664 0,-7.7201 6.27989,-14 14,-14 2.33914,0 4.55148,0.57631 6.49219,1.59375 a 1.000005,1.000005 0 0 1 0.42187,1.34961 1.000005,1.000005 0 0 1 -1.35156,0.42187 c -1.66271,-0.87169 -3.55086,-1.36523 -5.5625,-1.36523 -6.63922,0 -12,5.36078 -12,12 0,2.12122 0.54736,4.10728 1.50977,5.83398 a 1.000005,1.000005 0 0 1 -0.38672,1.35938 1.000005,1.000005 0 0 1 -0.75977,0.0879 z" id="path38968" style="color:#000000;fill:#444b54;fill-opacity:1;fill-rule:evenodd;stroke-linecap:round;stroke-linejoin:round;stroke-miterlimit:4.1"/></g></svg>